<mxfile host="app.diagrams.net" agent="Mozilla/5.0 (Windows NT 10.0; Win64; x64) AppleWebKit/537.36 (KHTML, like Gecko) Chrome/130.0.0.0 Safari/537.36" version="24.8.3">
  <diagram name="PÃ¡gina-1" id="dng7nw8M2es6q25K9qJo">
    <mxGraphModel dx="1434" dy="746" grid="1" gridSize="10" guides="1" tooltips="1" connect="1" arrows="1" fold="1" page="1" pageScale="1" pageWidth="827" pageHeight="1169" math="0" shadow="0">
      <root>
        <mxCell id="0" />
        <mxCell id="1" parent="0" />
        <mxCell id="YRHKVVt_79tUvqUOyTbm-3" value="" style="edgeStyle=orthogonalEdgeStyle;rounded=0;orthogonalLoop=1;jettySize=auto;html=1;" edge="1" parent="1" source="YRHKVVt_79tUvqUOyTbm-1" target="YRHKVVt_79tUvqUOyTbm-2">
          <mxGeometry relative="1" as="geometry" />
        </mxCell>
        <mxCell id="YRHKVVt_79tUvqUOyTbm-1" value="kroton-analytics.&lt;div&gt;data_etl_ga4.&lt;/div&gt;&lt;div&gt;TB_DIM_FUNIL_GA4_NOVOS_PROUTOS&lt;/div&gt;" style="rounded=0;whiteSpace=wrap;html=1;" vertex="1" parent="1">
          <mxGeometry x="10" y="280" width="240" height="60" as="geometry" />
        </mxCell>
        <mxCell id="YRHKVVt_79tUvqUOyTbm-5" value="" style="edgeStyle=orthogonalEdgeStyle;rounded=0;orthogonalLoop=1;jettySize=auto;html=1;" edge="1" parent="1" source="YRHKVVt_79tUvqUOyTbm-2" target="YRHKVVt_79tUvqUOyTbm-4">
          <mxGeometry relative="1" as="geometry" />
        </mxCell>
        <mxCell id="YRHKVVt_79tUvqUOyTbm-2" value="kroton-analytics.&lt;div&gt;data_etl_ga4.&lt;/div&gt;&lt;div&gt;TB_DADOS_FUNIL_NOVOS_PROUTOS&lt;/div&gt;" style="rounded=0;whiteSpace=wrap;html=1;" vertex="1" parent="1">
          <mxGeometry x="294" y="280" width="240" height="60" as="geometry" />
        </mxCell>
        <mxCell id="YRHKVVt_79tUvqUOyTbm-4" value="kroton-analytics.&lt;div&gt;data_delivery_ga4.&lt;/div&gt;&lt;div&gt;VW_DADOS_FUNIL_NOVOS_PROUTOS&lt;/div&gt;" style="rounded=0;whiteSpace=wrap;html=1;" vertex="1" parent="1">
          <mxGeometry x="580" y="280" width="240" height="60" as="geometry" />
        </mxCell>
      </root>
    </mxGraphModel>
  </diagram>
</mxfile>
